<svg width="21" height="21" xmlns="http://www.w3.org/2000/svg"><path d="M10.5 1.892c2.804 0 3.136.01 4.243.061 1.024.047 1.58.218 1.95.362.49.19.84.418 1.207.785.367.368.595.717.785 1.207.144.37.315.926.362 1.95.05 1.107.061 1.44.061 4.243 0 2.804-.01 3.136-.061 4.243-.047 1.024-.218 1.58-.362 1.95-.19.49-.418.84-.785 1.207a3.253 3.253 0 0 1-1.207.785c-.37.144-.926.315-1.95.362-1.107.05-1.44.061-4.243.061-2.804 0-3.136-.01-4.243-.061-1.024-.047-1.58-.218-1.95-.362-.49-.19-.84-.418-1.207-.785a3.253 3.253 0 0 1-.785-1.207c-.144-.37-.315-.926-.362-1.95-.05-1.107-.061-1.44-.061-4.243 0-2.804.01-3.136.061-4.243.047-1.024.218-1.58.362-1.95.19-.49.418-.84.785-1.207a3.253 3.253 0 0 1 1.207-.785c.37-.144.926-.315 1.95-.362 1.107-.05 1.44-.061 4.243-.061M10.5 0c2.852 0 3.21.012 4.33.063 1.117.051 1.88.229 2.548.488.69.269 1.276.628 1.86 1.211.583.584.942 1.17 1.21 1.86.26.668.438 1.431.489 2.549.05 1.12.063 1.477.063 4.329 0 2.852-.012 3.21-.063 4.33-.051 1.117-.229 1.88-.488 2.548a5.147 5.147 0 0 1-1.211 1.86 5.147 5.147 0 0 1-1.86 1.21c-.668.26-1.431.438-2.549.489-1.12.051-1.477.063-4.329.063-2.852 0-3.21-.012-4.33-.063-1.117-.051-1.88-.229-2.548-.488a5.147 5.147 0 0 1-1.86-1.211 5.147 5.147 0 0 1-1.21-1.86c-.26-.668-.438-1.431-.489-2.549C.012 13.71 0 13.352 0 10.5c0-2.852.012-3.21.063-4.33.051-1.117.229-1.88.488-2.548a5.147 5.147 0 0 1 1.211-1.86 5.147 5.147 0 0 1 1.86-1.21C4.29.291 5.053.113 6.171.062 7.29.013 7.648 0 10.5 0zm.02 5.125a5.396 5.396 0 1 0 0 10.792 5.396 5.396 0 0 0 0-10.792zm0 8.898a3.503 3.503 0 1 1 0-7.005 3.503 3.503 0 0 1 0 7.005zm6.813-9.148a1.25 1.25 0 1 0-2.5 0 1.25 1.25 0 0 0 2.5 0z" fill="#6D9E11" fill-rule="evenodd"/></svg>