<svg width="19" height="25" xmlns="http://www.w3.org/2000/svg">
  <path d="M18.989 18.417c-.147.978-2.208 3.521-3.154 3.887-.326.126-.64.096-.887-.092-.16-.122-.33-.368-2.55-3.867l-.66-1.042c-.254-.374-.206-.867.11-1.241.306-.365.76-.503 1.156-.355.02.012 1.663.536 1.663.536 3.738 1.192 3.86 1.237 4.02 1.352.241.188.35.48.302.822zm-7.491-5.32c-.264-.393-.262-.852.01-1.171.012-.013 1.041-1.372 1.041-1.372 2.275-3.018 2.396-3.175 2.56-3.28.265-.172.584-.182.903-.033.902.427 2.73 3.061 2.84 4.072.002.013 0 .024 0 .036.021.343-.108.623-.364.792-.168.106-.331.16-4.583 1.158-.682.157-1.058.246-1.268.322.006-.005.023-.034.023-.034-.424.115-.889-.084-1.162-.49zm-2.61-1.563c-.202.062-.822.247-1.583-.948 0 0-5.138-7.842-5.259-8.082-.073-.273.018-.581.265-.83.768-.77 4.915-1.897 6-1.635.356.085.6.303.686.609.06.338.566 7.613.64 9.246.07 1.395-.546 1.58-.749 1.64zm.677 7.974c-.01 3.814-.018 3.94-.083 4.123-.11.284-.361.473-.71.534-1 .166-4.133-.953-4.786-1.706a.9.9 0 0 1-.228-.495.738.738 0 0 1 .046-.35c.068-.19.185-.338 3.003-3.547.002 0 .823-.945.823-.945.28-.34.78-.447 1.245-.274.452.17.727.546.7.958l-.01 1.702zM1.041 17.07c-.31-.01-.583-.189-.745-.487-.117-.217-.198-.578-.248-1.013-.14-1.316.032-3.298.436-3.928.19-.29.469-.442.777-.43.204.002.384.066 4.406 1.675.003 0 1.176.463 1.176.463.422.154.683.582.656 1.067-.028.472-.308.842-.722.945l-1.671.518c-3.743 1.166-3.866 1.2-4.065 1.19z" fill="#6D9E11" fill-rule="evenodd"/>
</svg>
